<mxfile host="app.diagrams.net" agent="Mozilla/5.0 (Macintosh; Intel Mac OS X 10_15_7) AppleWebKit/537.36 (KHTML, like Gecko) Chrome/140.0.0.0 Safari/537.36" version="28.2.7">
  <diagram name="Page-1" id="0uYfxuU2VXsjchKUQEnz">
    <mxGraphModel dx="807" dy="444" grid="1" gridSize="10" guides="1" tooltips="1" connect="1" arrows="1" fold="1" page="1" pageScale="1" pageWidth="850" pageHeight="1100" math="0" shadow="0">
      <root>
        <mxCell id="0" />
        <mxCell id="1" parent="0" />
        <mxCell id="5bau3K2kAVYW9KvDwNTE-1" value="Business" style="swimlane;childLayout=stackLayout;horizontal=1;startSize=20;horizontalStack=0;rounded=1;fontSize=14;fontStyle=0;strokeWidth=2;resizeParent=0;resizeLast=1;shadow=0;dashed=0;align=center;arcSize=4;whiteSpace=wrap;html=1;fillColor=#dae8fc;strokeColor=#6c8ebf;" vertex="1" parent="1">
          <mxGeometry x="70" y="130" width="140" height="160" as="geometry" />
        </mxCell>
        <mxCell id="5bau3K2kAVYW9KvDwNTE-2" value="&lt;div&gt;The brand or company&lt;/div&gt;&lt;div&gt;&lt;br&gt;&lt;/div&gt;+Attribute1&lt;br&gt;+Attribute2&lt;br&gt;+Attribute3" style="align=left;strokeColor=none;fillColor=none;spacingLeft=4;spacingRight=4;fontSize=12;verticalAlign=top;resizable=0;rotatable=0;part=1;html=1;whiteSpace=wrap;" vertex="1" parent="5bau3K2kAVYW9KvDwNTE-1">
          <mxGeometry y="20" width="140" height="140" as="geometry" />
        </mxCell>
        <mxCell id="5bau3K2kAVYW9KvDwNTE-7" value="Location" style="swimlane;childLayout=stackLayout;horizontal=1;startSize=20;horizontalStack=0;rounded=1;fontSize=14;fontStyle=0;strokeWidth=2;resizeParent=0;resizeLast=1;shadow=0;dashed=0;align=center;arcSize=4;whiteSpace=wrap;html=1;fillColor=#dae8fc;strokeColor=#6c8ebf;" vertex="1" parent="1">
          <mxGeometry x="300" y="130" width="140" height="160" as="geometry" />
        </mxCell>
        <mxCell id="5bau3K2kAVYW9KvDwNTE-8" value="&lt;div&gt;An individual business location / store&lt;/div&gt;&lt;div&gt;&lt;br&gt;&lt;/div&gt;+Attribute1&lt;br&gt;+Attribute2&lt;br&gt;+Attribute3" style="align=left;strokeColor=none;fillColor=none;spacingLeft=4;spacingRight=4;fontSize=12;verticalAlign=top;resizable=0;rotatable=0;part=1;html=1;whiteSpace=wrap;" vertex="1" parent="5bau3K2kAVYW9KvDwNTE-7">
          <mxGeometry y="20" width="140" height="140" as="geometry" />
        </mxCell>
        <mxCell id="5bau3K2kAVYW9KvDwNTE-10" style="edgeStyle=orthogonalEdgeStyle;rounded=0;orthogonalLoop=1;jettySize=auto;html=1;exitX=0;exitY=0.25;exitDx=0;exitDy=0;entryX=1;entryY=0.25;entryDx=0;entryDy=0;" edge="1" parent="1" source="5bau3K2kAVYW9KvDwNTE-8" target="5bau3K2kAVYW9KvDwNTE-2">
          <mxGeometry relative="1" as="geometry" />
        </mxCell>
        <mxCell id="5bau3K2kAVYW9KvDwNTE-11" value="PART OF" style="edgeLabel;html=1;align=center;verticalAlign=middle;resizable=0;points=[];" vertex="1" connectable="0" parent="5bau3K2kAVYW9KvDwNTE-10">
          <mxGeometry x="0.0889" relative="1" as="geometry">
            <mxPoint as="offset" />
          </mxGeometry>
        </mxCell>
      </root>
    </mxGraphModel>
  </diagram>
</mxfile>
